<svg width="25" height="26" viewBox="0 0 25 26" fill="none" xmlns="http://www.w3.org/2000/svg">
<path d="M24.683 12.1346L19.9823 10.7669C19.7863 9.99203 19.48 9.24935 19.0728 8.56161C19.8548 7.12856 20.6381 5.69551 21.4213 4.26285C21.6354 3.87084 21.2084 3.44183 20.8156 3.65751L16.5341 6.0088C15.8398 5.59035 15.0874 5.27707 14.3013 5.07915C13.8357 3.49299 13.3705 1.90683 12.9049 0.31674C12.7817 -0.104792 12.1755 -0.106367 12.0516 0.31674C11.5899 1.90683 11.127 3.49299 10.6646 5.08309C9.89312 5.28024 9.15401 5.58723 8.46991 5.99464C7.02702 5.20746 5.58373 4.41635 4.14084 3.62917C3.74961 3.41546 3.32021 3.84289 3.53589 4.23569L5.90923 8.5565C5.49844 9.2474 5.19031 9.99438 4.99453 10.774L0.31674 12.1452C-0.104399 12.2688 -0.10676 12.8757 0.31674 12.9985L4.9961 14.3599C5.19746 15.1535 5.51427 15.9133 5.93639 16.6148C5.15787 18.0388 4.37935 19.4624 3.60162 20.8868C3.38672 21.2788 3.81377 21.7082 4.20657 21.4929C5.6286 20.7117 7.05102 19.9304 8.47345 19.1499C9.16442 19.5619 9.91167 19.8711 10.6917 20.0678C11.1479 21.6279 11.6056 23.1865 12.0626 24.7448C12.1866 25.1675 12.7931 25.1683 12.9159 24.7448C13.3689 23.1881 13.8231 21.6311 14.2753 20.0741C15.064 19.8767 15.8195 19.5647 16.5176 19.1479L20.7581 21.4654C20.7981 21.4987 20.8447 21.5233 20.8948 21.5376C20.9449 21.5519 20.9974 21.5556 21.049 21.5484C21.156 21.5421 21.2513 21.4929 21.3253 21.4205C21.4071 21.3449 21.463 21.243 21.4697 21.1273C21.4765 21.0753 21.4723 21.0224 21.4575 20.9721C21.4428 20.9217 21.4177 20.875 21.3839 20.8349C20.6101 19.4246 19.8344 18.0132 19.0602 16.6022C19.4733 15.9055 19.7833 15.1526 19.9804 14.367C21.5469 13.9073 23.1157 13.4476 24.6826 12.9887C25.1049 12.8651 25.1065 12.2578 24.6834 12.1346" fill="#FBB041"/>
<path d="M12.4188 19.5773C16.31 19.5773 19.4644 16.4229 19.4644 12.5317C19.4644 8.64051 16.31 5.48608 12.4188 5.48608C8.5276 5.48608 5.37317 8.64051 5.37317 12.5317C5.37317 16.4229 8.5276 19.5773 12.4188 19.5773Z" fill="#F9EC21"/>
</svg>
