<svg width="120" height="42" viewBox="0 0 120 42" fill="none" xmlns="http://www.w3.org/2000/svg">
<path d="M18.9861 0.165124C10.5434 1.28731 3.73679 6.51228 0.9857 14.6649C-0.0328297 17.6832 -0.261773 21.2296 0.297722 24.3675C0.478688 25.3824 0.61621 27.325 2.00643 27.2906C3.20774 27.2612 3.18084 25.9862 3.00097 25.1335C2.191 21.2943 2.4865 17.5729 3.88408 13.8989C7.82285 3.54482 20.8504 -0.117275 30.093 5.07221C39.1518 10.1585 42.0678 22.9413 35.9454 31.3891C34.2414 33.7403 31.975 35.959 29.327 37.2209C27.6593 38.0156 25.9347 38.3831 24.2204 38.9996C23.1749 39.3757 22.7027 41.0579 24.0946 41.3179C25.8584 41.6474 28.3021 40.4846 29.8377 39.7189C35.0391 37.1247 38.9955 32.7449 40.773 27.1761C45.0832 13.6723 33.5463 -1.77003 18.9861 0.165124Z" fill="white"/>
<path d="M23.8373 0.23877L23.965 0.366435L23.8373 0.23877ZM13.8794 1.2601L14.0071 1.38776L13.8794 1.2601ZM32.6463 3.68574L32.7739 3.81341L32.6463 3.68574Z" fill="white"/>
<path d="M25.7523 29.6018C25.648 29.0402 25.7608 27.6802 25.2746 27.3092C24.7371 26.8991 22.7387 27.6313 22.05 27.6753C20.0067 27.8061 17.9574 27.018 16.5722 25.5164C13.5371 22.2261 14.6117 15.7643 18.7307 13.8862C21.2366 12.7437 23.5524 13.6104 26.0076 14.2819C26.2213 13.7245 26.9059 12.5934 26.691 12.0113C26.4264 11.2937 24.6314 10.9837 23.965 10.8715C21.1031 10.3889 18.3227 10.6308 15.7944 12.1708C14.3197 13.0691 13.2523 14.4044 12.508 15.9416C12.1443 16.6929 11.98 17.7281 11.4182 18.3533C10.7239 19.1263 9.29146 19.0851 8.7956 18.1113C8.42397 17.3814 8.82828 16.4958 9.12 15.8139C9.93642 13.9061 11.1089 12.2489 12.7304 10.9377C16.7452 7.69118 22.0779 7.1629 26.646 9.59953C28.0772 10.3631 29.0078 11.683 30.3483 12.544C31.1939 13.0871 32.4173 12.6236 32.2253 11.4733C31.8642 9.30935 28.1801 7.48526 26.3906 6.71378C19.2097 3.61788 10.5098 6.94715 7.15395 14.0266C3.45436 21.8313 7.28736 30.9719 15.156 34.2713C19.1341 35.9393 23.7427 35.4895 27.5396 33.591C28.8216 32.95 30.6792 31.9626 31.3467 30.6231C31.8815 29.55 30.7468 28.4966 29.7099 29.0366C28.4653 29.6848 27.5714 30.8718 26.263 31.4774C21.9006 33.4957 16.8336 33.2071 12.9857 30.174C11.261 28.8145 9.37393 26.5479 8.81769 24.3675C8.56606 23.3816 8.77122 21.8305 10.0494 21.7425C10.759 21.6936 11.2696 22.3823 11.5216 22.9632C12.2953 24.7468 12.6792 26.3829 14.1366 27.8095C17.1541 30.7634 21.9669 30.676 25.7523 29.6018Z" fill="white"/>
<path d="M30.859 5.4729L30.9867 5.60057L30.859 5.4729ZM5.83651 6.36656L5.96418 6.49423L5.83651 6.36656ZM33.157 7.26022L33.2846 7.38789L33.157 7.26022ZM4.81519 7.51555L4.94285 7.64322L4.81519 7.51555ZM12.8581 7.64322L12.9858 7.77088L12.8581 7.64322ZM16.8158 8.53688L16.9434 8.66454L16.8158 8.53688ZM35.1996 9.43054L35.3273 9.55821L35.1996 9.43054ZM26.9014 9.68587L27.029 9.81354L26.9014 9.68587Z" fill="white"/>
<path d="M109.756 27.9421H112.693C112.693 25.3652 112.37 22.2812 112.996 19.7715C113.282 18.6242 114.561 17.6271 115.756 18.113C116.931 18.5902 117.033 19.7017 117.033 20.7928C117.033 23.1834 117.161 25.5543 117.161 27.9421H119.97V21.4312C119.97 20.2218 120.123 18.896 119.741 17.7289C119.104 15.7721 116.592 14.89 114.735 15.5933C113.885 15.9152 113.291 16.5812 112.565 17.0905C112.927 15.7531 112.693 14.1295 112.693 12.7499C112.693 12.2515 112.841 11.4604 112.616 11.0032C112.362 10.4883 110.094 10.5055 109.833 11.018C109.277 12.115 109.756 14.5809 109.756 15.8139V27.9421Z" fill="white"/>
<path d="M5.32593 10.9626L5.45359 11.0903L5.32593 10.9626ZM9.02823 10.9626L9.1559 11.0903L9.02823 10.9626ZM24.6035 10.9626L24.7311 11.0903L24.6035 10.9626ZM31.6251 12.6223L31.7527 12.75L31.6251 12.6223ZM17.5818 14.4096L17.7095 14.5373L17.5818 14.4096Z" fill="white"/>
<path d="M21.0288 14.6648L20.7734 15.4308H20.9011L21.0288 14.9201H21.1564L21.0288 15.3031H21.1564L21.0288 14.6648Z" fill="#BD3828"/>
<path d="M16.9434 14.9202L17.071 15.0478L16.9434 14.9202Z" fill="white"/>
<path d="M17.7095 16.0693L18.8585 15.9417C18.8823 16.9404 19.5784 18.1065 18.4755 18.7503V18.878H18.9861L18.8585 19.7716H19.1138L20.0075 17.729C19.1277 16.9187 19.8447 16.1319 19.5223 15.3339C19.1195 14.3368 17.9343 15.5985 17.7095 16.0693Z" fill="#BD3828"/>
<path d="M21.0288 14.9202L21.1565 15.5585L21.0288 14.9202Z" fill="white"/>
<path d="M48.4769 17.7289C48.3158 15.691 47.8497 15.5586 45.9236 15.5586V27.9422H48.8599C48.8599 24.224 47.5636 18.4108 52.8175 18.3673C52.9058 17.6693 53.2806 16.3693 52.9954 15.7154C52.7646 15.1865 51.9922 15.2867 51.5409 15.3902C50.0568 15.7302 49.5444 16.8473 48.4769 17.7289ZM102.863 24.6229C101.638 24.9538 100.37 25.8462 99.0325 25.3552C96.9513 24.591 96.7374 20.3899 98.0399 18.8803C98.7817 18.0206 99.78 17.9486 100.82 18.1954C101.195 18.2844 101.916 18.6952 102.28 18.4781C102.787 18.1755 103.037 16.6201 103.118 16.0693C100.855 15.3317 98.4925 14.8604 96.3565 16.3203C93.6426 18.1752 93.4741 24.3312 95.6276 26.6291C96.9679 28.0595 98.484 28.0787 100.309 28.0697C101.049 28.0661 102.263 27.8928 102.731 27.2225C103.125 26.6588 102.863 25.2922 102.863 24.6229ZM20.7734 15.4309L20.9011 15.5586L20.7734 15.4309Z" fill="white"/>
<path d="M22.5607 15.8137C22.2655 15.743 21.9704 15.5961 21.667 15.569C21.0336 15.5127 20.7552 16.4224 21.0323 16.9236C21.2489 17.3157 21.9419 17.2593 22.3054 17.3848C22.6033 17.4874 23.1231 17.9003 23.3515 17.4592C23.4803 17.2105 23.4112 15.8483 23.2345 15.6222C22.9558 15.2658 22.6298 15.4914 22.5607 15.8137Z" fill="white"/>
<path d="M79.8826 17.2182C79.4796 15.4759 78.8313 15.5585 77.2017 15.5585V27.9421H80.138C80.138 25.4572 79.5521 21.9888 80.4531 19.6438C81.0048 18.2079 82.9356 17.249 84.03 18.7526C84.5883 19.5196 84.4786 20.7859 84.4786 21.6865C84.4786 23.7221 84.2341 25.9378 84.6063 27.9421H87.4149V21.5588C87.4149 20.3478 87.574 19.0226 87.1916 17.8565C86.0236 14.2955 81.9335 15.173 79.8826 17.2182Z" fill="white"/>
<path d="M101.331 15.4309L101.458 15.5586L101.331 15.4309Z" fill="white"/>
<path d="M59.3285 15.5586C59.3285 18.6115 58.712 22.4374 59.5188 25.3889C60.1737 27.7849 62.5969 28.5551 64.8182 27.8759C65.6706 27.6153 66.2769 26.9055 66.9885 26.4102L67.3715 27.9422H69.6695V15.5586H66.7332C66.7332 17.9853 67.1574 21.4246 66.4015 23.7292C65.9866 24.9942 64.6254 26.0594 63.2885 25.2691C62.4096 24.7494 62.4077 23.6063 62.3338 22.7079C62.1394 20.3433 62.2649 17.9308 62.2649 15.5586H59.3285Z" fill="white"/>
<path d="M23.3267 15.6863V16.1969L24.8587 16.0693V15.8139L23.3267 15.6863Z" fill="#BD3828"/>
<path d="M79.3719 15.6863L79.4996 15.8139L79.3719 15.6863ZM19.369 15.8139V16.7076H19.4967L19.369 15.8139ZM81.4146 15.8139L81.5422 15.9416L81.4146 15.8139ZM18.0923 16.4523H17.3264L17.1987 16.7076C16.4684 17.2864 16.5604 18.0187 16.5604 18.8779H16.688V18.1119C16.9949 18.4284 17.5107 19.0489 17.071 19.3886V19.5163L17.837 19.7716L17.9647 18.3673L18.4753 17.7289C17.8299 17.8754 17.469 17.7741 17.3264 17.0906H17.454C17.6324 17.6532 17.9624 17.6932 18.4753 17.4736C18.5145 17.064 18.5853 16.937 18.986 16.8353L18.8583 15.9416C18.423 15.9752 18.2327 16.0283 18.0923 16.4523ZM50.1364 15.9416L50.2641 16.0693L50.1364 15.9416Z" fill="white"/>
<path d="M19.6243 16.0693L20.0073 16.58V16.0693H19.6243Z" fill="#BD3828"/>
<path d="M6.21948 16.1968L6.34715 16.3244L6.21948 16.1968Z" fill="white"/>
<path d="M19.4968 16.1968V16.4521L19.7522 16.1968H19.4968Z" fill="white"/>
<path d="M24.178 16.3669L24.2631 16.4097L24.178 16.3669Z" fill="#BD3828"/>
<path d="M24.0928 16.4521V16.7075H24.3481V16.4521H24.0928Z" fill="white"/>
<path d="M17.071 16.5798L17.1987 16.7075L17.071 16.5798Z" fill="white"/>
<path d="M17.071 16.9628L17.454 16.5798L17.071 16.9628ZM17.9647 16.5798L17.837 16.9628L17.9647 16.5798Z" fill="white"/>
<path d="M12.0923 16.7075L12.22 16.8352L12.0923 16.7075Z" fill="white"/>
<path d="M16.9434 16.7075L17.071 16.8352L16.9434 16.7075Z" fill="white"/>
<path d="M18.4754 17.4735C17.9676 17.6025 17.7094 17.5644 17.4541 17.0905H17.3264C17.4104 17.8207 17.811 17.9233 18.4754 17.7288L17.9647 18.3671L17.8371 19.7714H17.3264C17.8084 20.3444 18.4748 20.3074 18.8584 19.6438L18.4754 19.7714C18.3534 18.8349 19.1675 18.4372 19.1488 17.4741C19.1348 16.7459 18.4076 16.6939 18.4754 17.4735Z" fill="white"/>
<path d="M102.862 16.8352L102.99 16.9629L102.862 16.8352ZM15.5391 16.9629L15.6667 17.0905L15.5391 16.9629ZM119.331 16.9629L119.459 17.0905L119.331 16.9629Z" fill="white"/>
<path d="M20.3904 17.6012L21.9224 17.7289C21.6633 16.9295 20.8672 17.0613 20.3904 17.6012ZM23.0714 18.1119L25.497 17.9842L25.2417 17.0906C24.3691 17.2526 23.3669 17.0844 23.0714 18.1119Z" fill="#BD3828"/>
<path d="M22.0501 17.2183L21.9224 17.7289C21.6559 17.6984 19.4716 17.5327 20.018 18.2766C20.2965 18.6558 21.2681 18.3747 21.6671 18.3673V19.8992H22.5608L22.8161 19.0056L24.9864 19.1332V19.5162H26.5184L26.2631 18.7503H25.3694V18.1119H23.0714L22.0501 17.2183Z" fill="white"/>
<path d="M66.6477 17.5586L66.6904 17.6438L66.6477 17.5586Z" fill="white"/>
<path d="M20.2201 17.6436L20.3052 17.6862L20.2201 17.6436ZM20.0073 17.7287L20.135 17.8564L20.0073 17.7287Z" fill="white"/>
<path d="M20.3904 17.8564L20.2627 17.9841V18.1118L20.3904 18.2394H20.518L20.6457 18.1118V17.9841L20.3904 17.8564Z" fill="#BD3828"/>
<path d="M25.4971 17.8564L25.3694 18.7501H26.263L25.4971 17.8564Z" fill="white"/>
<path d="M25.2417 17.9841L25.3694 18.1118L25.2417 17.9841Z" fill="white"/>
<path d="M11.5815 18.1118L11.7092 18.2395L11.5815 18.1118Z" fill="white"/>
<path d="M16.688 18.1118C16.6897 18.5196 16.6366 18.7847 17.071 18.8778L16.9434 19.2608L17.454 19.3885L16.688 18.1118Z" fill="white"/>
<path d="M19.369 19.8991L18.4754 20.2821L20.135 20.1545V18.7501H21.1564V19.3885L21.667 19.1331V18.3671C20.4048 18.3743 18.9042 18.1774 19.369 19.8991ZM41.4552 18.3671L41.5829 18.4948L41.4552 18.3671ZM119.842 18.3671L119.97 18.4948L119.842 18.3671ZM9.28345 18.7501L9.41111 18.8778L9.28345 18.7501Z" fill="white"/>
<path d="M20.135 18.7502V20.2822H20.7733V19.8992H21.284L21.1563 18.7502H20.135Z" fill="white"/>
<path d="M26.2629 18.7502V19.1332H26.3906L26.2629 18.7502Z" fill="white"/>
<path d="M16.5603 18.8779L17.071 19.3886V18.8779H16.5603Z" fill="#BD3828"/>
<path d="M18.22 19.0056L18.603 19.7716L18.986 19.0056H18.22Z" fill="white"/>
<path d="M18.8159 18.9204L18.9009 18.963L18.8159 18.9204ZM19.6244 19.0056V19.3886H19.7521L19.6244 19.0056Z" fill="white"/>
<path d="M22.8161 19.0056C22.5901 19.4565 22.3363 19.9512 22.8161 20.2823C22.8268 19.873 22.8844 19.318 23.3268 19.2609L22.8161 19.0056ZM21.5394 19.1333L21.2841 19.8993H20.7734L21.5394 21.3036L20.9011 21.4313V21.5589L21.1564 21.9419C21.9715 21.8148 22.229 21.1716 22.3054 20.4099L21.6671 20.5376L21.5394 19.1333Z" fill="#BD3828"/>
<path d="M23.4119 19.1758L23.497 19.2185L23.4119 19.1758Z" fill="white"/>
<path d="M23.6672 19.1758L23.7524 19.2185L23.6672 19.1758Z" fill="#BD3828"/>
<path d="M23.8374 19.1333V19.261H24.6034L23.8374 19.1333Z" fill="white"/>
<path d="M24.8586 19.1333L24.9863 19.261L24.8586 19.1333Z" fill="white"/>
<path d="M26.3908 19.1333L26.5185 19.5163L24.9865 19.261H24.8588C24.9229 19.8347 25.1184 20.132 25.6248 20.41V20.5376L24.4758 21.0483L25.8802 21.3036L26.0078 20.41C26.9677 20.2815 27.2404 19.6975 26.3908 19.1333Z" fill="#BD3828"/>
<path d="M17.4541 19.3884L17.5818 19.5161L17.4541 19.3884Z" fill="white"/>
<path d="M26.9014 19.3884V19.5161L27.2844 19.7714L27.029 19.6438V19.7714L27.2844 19.8991L27.412 19.3884H26.9014Z" fill="white"/>
<path d="M19.1138 19.5161L19.3691 19.8991L19.1138 19.5161ZM22.8161 19.8991H23.4544C23.2221 19.602 23.0369 19.5931 22.8161 19.8991Z" fill="white"/>
<path d="M23.0713 19.5161L23.199 19.6438L23.0713 19.5161Z" fill="white"/>
<path d="M27.0291 19.5161L27.2844 19.7714V19.5161H27.0291Z" fill="white"/>
<path d="M112.948 19.5161L113.076 19.6438L112.948 19.5161Z" fill="white"/>
<path d="M17.3264 19.6438L17.4541 19.7715L17.3264 19.6438Z" fill="white"/>
<path d="M23.4545 19.7715L22.8162 19.8991L22.9438 20.2821L23.4545 19.7715Z" fill="white"/>
<path d="M17.3264 19.8992L17.4541 20.0268L17.3264 19.8992Z" fill="white"/>
<path d="M21.7947 19.8992L22.433 20.2822C22.3495 19.8923 22.1768 19.9073 21.7947 19.8992Z" fill="white"/>
<path d="M17.4541 20.0269L17.5818 20.1545L17.4541 20.0269ZM22.8586 20.112L22.9012 20.197L22.8586 20.112Z" fill="white"/>
<path d="M17.5818 20.1545L17.7095 20.2822L17.5818 20.1545Z" fill="#BD3828"/>
<path d="M18.0925 20.1545L18.2202 20.2822L18.0925 20.1545Z" fill="white"/>
<path d="M18.3052 20.197L18.3903 20.2397L18.3052 20.197Z" fill="white"/>
<path d="M21.667 20.5376L22.3053 20.2822L21.667 20.5376Z" fill="white"/>
<path d="M22.3054 20.2822L22.4331 20.4099L22.3054 20.2822Z" fill="white"/>
<path d="M97.3728 20.2822L97.5005 20.4099L97.3728 20.2822Z" fill="white"/>
<path d="M24.4758 20.4099V20.5376H24.8588L24.4758 20.4099Z" fill="#BD3828"/>
<path d="M24.3481 20.5374L24.4758 20.665L24.3481 20.5374Z" fill="white"/>
<path d="M24.4758 20.9205L24.9865 20.6652C24.6786 20.4922 24.5483 20.5823 24.4758 20.9205Z" fill="white"/>
<path d="M24.9863 20.5374L25.114 20.665L24.9863 20.5374Z" fill="white"/>
<path d="M31.4978 20.6688C29.8453 21.5038 31.0804 23.9142 32.6344 23.068C34.1027 22.2685 32.9905 19.9144 31.4978 20.6688Z" fill="white"/>
<path d="M20.7734 21.048H21.4118L21.2841 20.665L20.7734 21.048Z" fill="white"/>
<path d="M24.3481 20.665L24.4758 20.7927L24.3481 20.665Z" fill="#BD3828"/>
<path d="M25.4971 20.665V20.9204L25.7524 20.665H25.4971Z" fill="white"/>
<path d="M24.8162 20.8354L24.9013 20.8782L24.8162 20.8354Z" fill="#010101"/>
<path d="M25.8799 20.7927L26.0075 20.9204L25.8799 20.7927Z" fill="white"/>
<path d="M20.7734 21.4312L21.5394 21.3035V21.0482C21.1231 20.9985 20.8977 21.0085 20.7734 21.4312Z" fill="white"/>
<path d="M24.6033 20.9207L24.7309 21.0483L24.6033 20.9207Z" fill="white"/>
<path d="M24.9863 20.9207V21.0483L25.497 21.176L24.9863 20.9207Z" fill="#010101"/>
<path d="M24.2204 21.0481L24.0928 21.6864H24.2204L24.4758 21.0481H24.2204Z" fill="white"/>
<path d="M24.4757 21.0481L24.6034 21.4311L24.9864 21.0481H24.4757ZM22.6884 21.1758L22.3054 21.4311L22.5608 22.1971L23.1991 21.4311L22.9437 21.1758H22.6884Z" fill="white"/>
<path d="M24.3481 21.1758L24.4758 21.3034L24.3481 21.1758Z" fill="#BD3828"/>
<path d="M24.4758 21.1758L24.0928 21.8141L24.3481 22.3248L26.0078 21.6864L26.1354 21.1758H24.4758Z" fill="white"/>
<path d="M25.4971 21.1758V21.4311H25.7524V21.1758H25.4971Z" fill="white"/>
<path d="M23.2415 21.5164L23.2842 21.6015L23.2415 21.5164Z" fill="white"/>
<path d="M26.0076 21.4312L26.1352 21.5588L26.0076 21.4312Z" fill="#BD3828"/>
<path d="M24.2205 21.5588L24.3481 21.6865L24.2205 21.5588Z" fill="white"/>
<path d="M22.3054 21.6865L22.4331 22.3248H22.5608L22.3054 21.6865Z" fill="white"/>
<path d="M23.0713 21.6865L23.199 21.8142L23.0713 21.6865Z" fill="white"/>
<path d="M23.0715 21.8142L22.8162 22.0695V22.1972C23.1035 22.1368 23.2142 22.0874 23.0715 21.8142ZM24.2205 21.8142L24.3482 21.9419L24.2205 21.8142Z" fill="white"/>
<path d="M14.9009 22.0696L15.0285 22.1972L14.9009 22.0696Z" fill="white"/>
<path d="M22.3053 23.2186V23.6016C22.8479 23.1745 22.9532 22.8367 22.6883 22.1972C22.379 22.2075 21.7691 21.988 21.518 22.2031C20.9195 22.7158 21.9216 23.1833 22.3053 23.2186Z" fill="#BD3828"/>
<path d="M24.4758 22.1973L24.6035 22.3249L24.4758 22.1973ZM25.3695 22.3249L24.8588 22.7079V22.8356L25.3695 22.3249Z" fill="white"/>
<path d="M24.0928 22.4524V22.5801L24.6034 22.7077L24.0928 22.4524Z" fill="white"/>
<path d="M24.0928 22.5801L24.2204 22.7077L24.0928 22.5801Z" fill="white"/>
<path d="M24.9863 22.5801L25.114 22.7077L24.9863 22.5801ZM25.2417 22.5801L25.3693 22.7077L25.2417 22.5801Z" fill="white"/>
<path d="M24.0928 22.7078V22.8354H24.7311L24.0928 22.7078Z" fill="white"/>
<path d="M24.0928 22.8354L24.6035 23.4738L22.8162 23.2184V23.3461L23.1992 23.4738L22.8162 23.6014V23.7291L24.9865 23.6014L24.8588 22.7078L24.0928 22.8354Z" fill="#BD3828"/>
<path d="M39.0295 22.9631L39.1572 23.0908L39.0295 22.9631Z" fill="white"/>
<path d="M22.3054 23.0908L22.4331 23.2185L22.3054 23.0908Z" fill="#010101"/>
<path d="M24.4758 23.6016V23.7293H24.9865V23.8569H22.9438V23.9846L23.0715 24.2399L23.7098 24.6229H23.1992V24.7506H23.8375L23.7098 24.3676L25.4971 23.9846V23.8569H25.2418V23.7293H26.0078C25.8365 22.703 25.0881 23.4296 24.4758 23.6016ZM8.64526 23.3463L8.77293 23.4739L8.64526 23.3463Z" fill="white"/>
<path d="M22.05 23.3462L21.9224 23.6015L22.05 23.3462Z" fill="white"/>
<path d="M22.8162 23.6015L23.1992 23.3462L22.8162 23.6015Z" fill="white"/>
<path d="M27.2843 23.3462L26.5183 24.3675C27.3086 24.3581 27.5204 24.1384 27.5396 23.3462H27.2843Z" fill="#BD3828"/>
<path d="M22.1353 23.5164L22.2204 23.5591L22.1353 23.5164Z" fill="white"/>
<path d="M22.8162 23.7292V23.8569H24.0928L22.8162 23.7292ZM24.3482 23.7292V23.8569H24.9865L24.3482 23.7292ZM25.2418 23.7292V23.8569H25.8801L25.2418 23.7292Z" fill="white"/>
<path d="M66.3501 23.7292L66.4778 23.8569L66.3501 23.7292Z" fill="white"/>
<path d="M22.8162 23.8567L23.1992 24.112V23.9844L22.8162 23.8567Z" fill="#BD3828"/>
<path d="M25.4971 23.8567L25.6247 23.9844L25.4971 23.8567Z" fill="white"/>
<path d="M112.693 23.8567L112.82 23.9844L112.693 23.8567Z" fill="white"/>
<path d="M22.6884 24.1121L22.05 24.7504L22.6884 24.1121Z" fill="white"/>
<path d="M22.8161 24.1121L22.6885 24.6227H23.7098L22.8161 24.1121Z" fill="white"/>
<path d="M2.77246 24.3674L2.90013 24.4951L2.77246 24.3674Z" fill="white"/>
<path d="M21.4116 24.3674L21.667 24.7504V24.3674H21.4116ZM23.7096 24.3674L23.8373 24.4951L23.7096 24.3674Z" fill="white"/>
<path d="M26.3906 25.3888L27.2843 24.3674C26.5311 24.3922 26.3992 24.6672 26.3906 25.3888Z" fill="white"/>
<path d="M22.3053 24.4951L22.1777 24.8781L21.9223 24.7504L21.667 25.5164C22.2342 25.3346 22.5899 25.1034 22.6883 24.4951H22.3053Z" fill="#BD3828"/>
<path d="M22.4331 24.4951L22.5608 24.6228L22.4331 24.4951Z" fill="white"/>
<path d="M21.4116 24.6228L21.5393 24.7505L21.4116 24.6228Z" fill="#BD3828"/>
<path d="M22.1777 24.6228L22.3054 24.7505L22.1777 24.6228Z" fill="white"/>
<path d="M22.6885 24.6228V24.7505H23.0715L22.6885 24.6228ZM23.9226 24.6653L24.0076 24.708L23.9226 24.6653ZM24.5609 24.6653L24.646 24.708L24.5609 24.6653Z" fill="white"/>
<path d="M24.4758 25.6441C24.8578 25.3253 24.9675 25.1125 24.8588 24.6228L24.4758 25.6441Z" fill="white"/>
<path d="M24.8586 24.6228L24.9863 24.7505L24.8586 24.6228Z" fill="white"/>
<path d="M22.05 24.7505L22.1777 24.8782L22.05 24.7505Z" fill="white"/>
<path d="M22.6885 24.7505V24.8782H24.0928L22.6885 24.7505Z" fill="#010101"/>
<path d="M23.5822 24.8782C23.521 25.3281 23.2297 25.4091 22.8162 25.5165V25.6442L24.3482 25.7718C24.5562 25.0451 24.3012 24.8261 23.5822 24.8782Z" fill="#BD3828"/>
<path d="M22.6885 24.8782V25.0058H23.5821L22.6885 24.8782Z" fill="white"/>
<path d="M117.033 24.8782L117.161 25.0058L117.033 24.8782Z" fill="white"/>
<path d="M21.9224 25.6442L22.6884 25.2612V25.5165L23.7097 25.0059C23.0022 25.0064 22.329 24.9819 21.9224 25.6442Z" fill="white"/>
<path d="M21.7947 25.5163L22.3053 26.41H22.433L24.6033 25.644L22.6883 25.7716V25.261L21.7947 25.5163Z" fill="white"/>
<path d="M24.8586 25.261L24.9863 25.3887L24.8586 25.261Z" fill="#BD3828"/>
<path d="M63.1584 25.261L63.2861 25.3887L63.1584 25.261Z" fill="white"/>
<path d="M23.0288 25.4312L23.114 25.4739L23.0288 25.4312Z" fill="white"/>
<path d="M24.731 25.3889L24.8586 25.5166L24.731 25.3889Z" fill="#BD3828"/>
<path d="M22.6885 25.5164L22.8161 25.644L22.6885 25.5164Z" fill="white"/>
<path d="M24.6033 25.5164L24.7309 25.644L24.6033 25.5164Z" fill="#BD3828"/>
<path d="M22.6885 25.644V25.7717H23.5821L22.6885 25.644ZM23.7098 25.644L23.8375 25.7717L23.7098 25.644ZM24.0503 25.6866L24.1353 25.7292L24.0503 25.6866Z" fill="white"/>
<path d="M23.582 25.7717L23.7097 25.8994L23.582 25.7717Z" fill="#010101"/>
<path d="M22.6885 26.0271V26.1548H23.9651L22.6885 26.0271Z" fill="white"/>
<path d="M2.77246 26.9209L2.90013 27.0486L2.77246 26.9209ZM13.3687 26.9209L13.4964 27.0486L13.3687 26.9209ZM64.1797 27.9422L64.3074 28.0699L64.1797 27.9422ZM29.4546 29.0912L29.5823 29.2189L29.4546 29.0912ZM8.90042 29.6019L9.02808 29.7295L8.90042 29.6019ZM36.9869 29.6019L37.1145 29.7295L36.9869 29.6019ZM17.5817 29.7295L17.7094 29.8572L17.5817 29.7295ZM39.6679 29.7295L39.7955 29.8572L39.6679 29.7295ZM14.1347 31.0062L14.2624 31.1339L14.1347 31.0062ZM29.9653 31.8999L30.0929 32.0275L29.9653 31.8999ZM23.582 32.4105L23.7096 32.5382L23.582 32.4105ZM22.1777 32.6659L22.3053 32.7935L22.1777 32.6659ZM15.4114 34.3255L15.539 34.4532L15.4114 34.3255ZM33.1569 34.4532L33.2846 34.5808L33.1569 34.4532ZM29.0716 37.2618L29.1993 37.3895L29.0716 37.2618ZM33.2846 37.5172L33.4122 37.6448L33.2846 37.5172Z" fill="white"/>
<path d="M20.2633 39.262C18.6807 39.7174 19.4774 41.9838 21.0237 41.5469C22.445 41.1452 21.692 38.8509 20.2633 39.262Z" fill="white"/>
<path d="M21.1565 39.3044L21.2842 39.4321L21.1565 39.3044ZM28.1781 40.3258L28.3058 40.4534L28.1781 40.3258ZM25.2418 41.2194L25.3695 41.3471L25.2418 41.2194Z" fill="white"/>
</svg>
